# xmcd
#
# Track frame offsets: 
#        150
#        10607
#        20537
#        32908
#        45959
#        59740
#        74948
#        86860
#        104961
#        120207
#        140217
#        150458
#        162330
#        175501
#        188983
#        205036
#        224697
#        235357
#        247838
#        259022
#        270410
#
# Disc length: 3721 seconds
#
# Revision: 0
# Processed by: cddbd v1.5.2PL0 Copyright (c) Steve Scherf et al.
# Submitted via: ExactAudioCopy v1.3
#
DISCID=310e8715
DTITLE=Various Artist - Country Jukebox, CD2 - I fall to pieces
DYEAR=2014
DGENRE=Country
TTITLE0=Patsy Cline - Too many secrets
TTITLE1=Jerry Reed et al. - Yakety Axe
TTITLE2=Sandy Kelly - I fall to pieces
TTITLE3=Merle Haggard - Misery and gin
TTITLE4=Conway Twitty - Baby's gone
TTITLE5=Charlie Rich and Janie Fricke - On my knees
TTITLE6=Glen Campbell - You don't have to say you love me
TTITLE7=T. Graham Brown - Don't go to strangers
TTITLE8=Eddy Raven - Shine, shine, shine
TTITLE9=Rodney Crowell - Operator (That's not the way it feels)
TTITLE10=Kenny Rogers - Heroes
TTITLE11=Wayne Moss - Wildwood flower
TTITLE12=Donna Fargo - Daddy
TTITLE13=John Baker - Take these chains from my heart
TTITLE14=Merle Haggard - It's all the movies
TTITLE15=Jimmy Webb with Willie Nelson - If you see me getting smaller
TTITLE16=Roger Miller - When two worlds collide
TTITLE17=David Houston - Already it's Heaven
TTITLE18=Patsy Cline - Don't ever leave me again
TTITLE19=Harold Morrison and the Maple Hill Boys - Little Maggie
TTITLE20=Don Reno and Bobby Thompson - medley: Yankee doodle boy, etc.
EXTD=
EXTT0=
EXTT1=
EXTT2=
EXTT3=
EXTT4=
EXTT5=
EXTT6=
EXTT7=
EXTT8=
EXTT9=
EXTT10=
EXTT11=
EXTT12=
EXTT13=
EXTT14=
EXTT15=
EXTT16=
EXTT17=
EXTT18=
EXTT19=
EXTT20=
PLAYORDER=
